<svg width="32" height="32" viewBox="0 0 32 32" fill="none" xmlns="http://www.w3.org/2000/svg">
<mask id="mask0_52_386" style="mask-type:alpha" maskUnits="userSpaceOnUse" x="0" y="0" width="32" height="32">
<rect width="32" height="32" fill="#D9D9D9"/>
</mask>
<g mask="url(#mask0_52_386)">
<path d="M10 29.3332C8.71115 29.3332 7.61115 28.8776 6.70004 27.9665C5.78893 27.0554 5.33337 25.9554 5.33337 24.6665V7.33317C5.33337 6.04428 5.78893 4.94428 6.70004 4.03317C7.61115 3.12206 8.71115 2.6665 10 2.6665H26.6667V22.6665C26.1112 22.6665 25.6389 22.8609 25.25 23.2498C24.8612 23.6387 24.6667 24.1109 24.6667 24.6665C24.6667 25.2221 24.8612 25.6943 25.25 26.0832C25.6389 26.4721 26.1112 26.6665 26.6667 26.6665V29.3332H10ZM8.00004 20.4332C8.31115 20.2776 8.63337 20.1665 8.96671 20.0998C9.30004 20.0332 9.64449 19.9998 10 19.9998H10.6667V5.33317H10C9.44449 5.33317 8.97226 5.52762 8.58337 5.9165C8.19449 6.30539 8.00004 6.77762 8.00004 7.33317V20.4332ZM13.3334 19.9998H24V5.33317H13.3334V19.9998ZM10 26.6665H22.4334C22.3 26.3554 22.1945 26.0387 22.1167 25.7165C22.0389 25.3943 22 25.0443 22 24.6665C22 24.3109 22.0334 23.9665 22.1 23.6332C22.1667 23.2998 22.2778 22.9776 22.4334 22.6665H10C9.42226 22.6665 8.94449 22.8609 8.56671 23.2498C8.18893 23.6387 8.00004 24.1109 8.00004 24.6665C8.00004 25.2443 8.18893 25.7221 8.56671 26.0998C8.94449 26.4776 9.42226 26.6665 10 26.6665Z" fill="#0099FF"/>
</g>
</svg>
