<svg width="57" height="71" viewBox="0 0 57 71" fill="none" xmlns="http://www.w3.org/2000/svg">
<path d="M12.9375 70.0832C9.59449 70.0832 6.74136 68.9016 4.37817 66.5384C2.01497 64.1752 0.833374 61.3221 0.833374 57.979V13.0207C0.833374 9.67762 2.01497 6.82449 4.37817 4.4613C6.74136 2.0981 9.59449 0.916504 12.9375 0.916504H56.1667V52.7915C54.7257 52.7915 53.5009 53.2958 52.4922 54.3045C51.4836 55.3132 50.9792 56.538 50.9792 57.979C50.9792 59.42 51.4836 60.6448 52.4922 61.6535C53.5009 62.6622 54.7257 63.1665 56.1667 63.1665V70.0832H12.9375ZM7.75004 46.9988C8.55699 46.5953 9.39275 46.3071 10.2573 46.1342C11.1219 45.9613 12.0153 45.8748 12.9375 45.8748H14.6667V7.83317H12.9375C11.4966 7.83317 10.2717 8.33751 9.26306 9.34619C8.25438 10.3549 7.75004 11.5797 7.75004 13.0207V46.9988ZM21.5834 45.8748H49.25V7.83317H21.5834V45.8748ZM12.9375 63.1665H45.1865C44.8407 62.3596 44.5669 61.5382 44.3652 60.7024C44.1634 59.8667 44.0625 58.9589 44.0625 57.979C44.0625 57.0568 44.149 56.1634 44.3219 55.2988C44.4948 54.4342 44.783 53.5984 45.1865 52.7915H12.9375C11.4389 52.7915 10.1997 53.2958 9.21983 54.3045C8.23997 55.3132 7.75004 56.538 7.75004 57.979C7.75004 59.4776 8.23997 60.7169 9.21983 61.6967C10.1997 62.6766 11.4389 63.1665 12.9375 63.1665Z" fill="white"/>
</svg>
