<svg width="83" height="83" viewBox="0 0 83 83" fill="none" xmlns="http://www.w3.org/2000/svg">
<mask id="mask0_52_377" style="mask-type:alpha" maskUnits="userSpaceOnUse" x="0" y="0" width="83" height="83">
<rect width="83" height="83" fill="#D9D9D9"/>
</mask>
<g mask="url(#mask0_52_377)">
<path d="M16.3405 69.1668C12.8822 69.1668 9.92821 67.9276 7.47856 65.4491C5.02891 62.9706 3.74644 59.9734 3.63116 56.4575C3.63116 55.9387 3.65998 55.42 3.71762 54.9012C3.77526 54.3825 3.86172 53.8637 3.977 53.345L11.2395 24.295C12.0464 21.1825 13.6892 18.6608 16.1676 16.7299C18.6461 14.7989 21.4704 13.8335 24.6405 13.8335H58.3593C61.5294 13.8335 64.3537 14.7989 66.8322 16.7299C69.3107 18.6608 70.9534 21.1825 71.7603 24.295L79.0228 53.345C79.1381 53.8637 79.239 54.3969 79.3254 54.9444C79.4119 55.492 79.4551 56.0252 79.4551 56.5439C79.4551 60.0599 78.2015 63.0427 75.6942 65.4923C73.1869 67.942 70.1753 69.1668 66.6593 69.1668C64.2385 69.1668 61.9905 68.5328 59.9155 67.2647C57.8405 65.9967 56.2843 64.2675 55.2468 62.0772L52.826 57.0627C52.5378 56.4863 52.1055 56.054 51.5291 55.7658C50.9527 55.4776 50.3475 55.3335 49.7135 55.3335H33.2864C32.6523 55.3335 32.0471 55.4776 31.4708 55.7658C30.8944 56.054 30.4621 56.4863 30.1739 57.0627L27.753 62.0772C26.7155 64.2675 25.1593 65.9967 23.0843 67.2647C21.0093 68.5328 18.7614 69.1668 16.3405 69.1668ZM16.5999 62.2502C17.6951 62.2502 18.6893 61.962 19.5827 61.3856C20.4761 60.8092 21.1534 60.0311 21.6145 59.0512L24.0353 54.1231C24.8999 52.3363 26.168 50.9385 27.8395 49.9298C29.511 48.9212 31.3267 48.4168 33.2864 48.4168H49.7135C51.6732 48.4168 53.4888 48.9356 55.1603 49.9731C56.8319 51.0106 58.1287 52.3939 59.051 54.1231L61.4718 59.0512C61.9329 60.0311 62.6102 60.8092 63.5036 61.3856C64.397 61.962 65.3912 62.2502 66.4864 62.2502C68.1003 62.2502 69.4836 61.717 70.6364 60.6507C71.7892 59.5844 72.3944 58.2443 72.452 56.6304C72.452 56.688 72.3944 56.1404 72.2791 54.9877L65.0166 26.0241C64.6131 24.4679 63.8062 23.1998 62.5957 22.22C61.3853 21.2401 59.9732 20.7502 58.3593 20.7502H24.6405C23.0267 20.7502 21.6001 21.2401 20.3609 22.22C19.1216 23.1998 18.3291 24.4679 17.9832 26.0241L10.7207 54.9877C10.6055 55.3335 10.5478 55.8522 10.5478 56.5439C10.5478 58.1578 11.1386 59.5123 12.3202 60.6075C13.5018 61.7026 14.9284 62.2502 16.5999 62.2502ZM46.6874 38.0418C47.6673 38.0418 48.4886 37.7104 49.1515 37.0476C49.8143 36.3847 50.1457 35.5634 50.1457 34.5835C50.1457 33.6036 49.8143 32.7823 49.1515 32.1194C48.4886 31.4566 47.6673 31.1252 46.6874 31.1252C45.7076 31.1252 44.8862 31.4566 44.2234 32.1194C43.5605 32.7823 43.2291 33.6036 43.2291 34.5835C43.2291 35.5634 43.5605 36.3847 44.2234 37.0476C44.8862 37.7104 45.7076 38.0418 46.6874 38.0418ZM53.6041 31.1252C54.5839 31.1252 55.4053 30.7937 56.0681 30.1309C56.731 29.468 57.0624 28.6467 57.0624 27.6668C57.0624 26.687 56.731 25.8656 56.0681 25.2028C55.4053 24.5399 54.5839 24.2085 53.6041 24.2085C52.6242 24.2085 51.8029 24.5399 51.14 25.2028C50.4772 25.8656 50.1457 26.687 50.1457 27.6668C50.1457 28.6467 50.4772 29.468 51.14 30.1309C51.8029 30.7937 52.6242 31.1252 53.6041 31.1252ZM53.6041 44.9585C54.5839 44.9585 55.4053 44.6271 56.0681 43.9642C56.731 43.3014 57.0624 42.48 57.0624 41.5002C57.0624 40.5203 56.731 39.6989 56.0681 39.0361C55.4053 38.3733 54.5839 38.0418 53.6041 38.0418C52.6242 38.0418 51.8029 38.3733 51.14 39.0361C50.4772 39.6989 50.1457 40.5203 50.1457 41.5002C50.1457 42.48 50.4772 43.3014 51.14 43.9642C51.8029 44.6271 52.6242 44.9585 53.6041 44.9585ZM60.5207 38.0418C61.5006 38.0418 62.322 37.7104 62.9848 37.0476C63.6477 36.3847 63.9791 35.5634 63.9791 34.5835C63.9791 33.6036 63.6477 32.7823 62.9848 32.1194C62.322 31.4566 61.5006 31.1252 60.5207 31.1252C59.5409 31.1252 58.7195 31.4566 58.0567 32.1194C57.3938 32.7823 57.0624 33.6036 57.0624 34.5835C57.0624 35.5634 57.3938 36.3847 58.0567 37.0476C58.7195 37.7104 59.5409 38.0418 60.5207 38.0418ZM29.3958 43.2293C30.1451 43.2293 30.7647 42.9844 31.2546 42.4944C31.7445 42.0045 31.9895 41.3849 31.9895 40.6356V37.1772H35.4478C36.1971 37.1772 36.8168 36.9323 37.3067 36.4423C37.7966 35.9524 38.0416 35.3328 38.0416 34.5835C38.0416 33.8342 37.7966 33.2146 37.3067 32.7246C36.8168 32.2347 36.1971 31.9897 35.4478 31.9897H31.9895V28.5314C31.9895 27.7821 31.7445 27.1625 31.2546 26.6726C30.7647 26.1826 30.1451 25.9377 29.3958 25.9377C28.6464 25.9377 28.0268 26.1826 27.5369 26.6726C27.047 27.1625 26.802 27.7821 26.802 28.5314V31.9897H23.3437C22.5944 31.9897 21.9747 32.2347 21.4848 32.7246C20.9949 33.2146 20.7499 33.8342 20.7499 34.5835C20.7499 35.3328 20.9949 35.9524 21.4848 36.4423C21.9747 36.9323 22.5944 37.1772 23.3437 37.1772H26.802V40.6356C26.802 41.3849 27.047 42.0045 27.5369 42.4944C28.0268 42.9844 28.6464 43.2293 29.3958 43.2293Z" fill="white"/>
</g>
</svg>
