<svg width="68" height="63" viewBox="0 0 68 63" fill="none" xmlns="http://www.w3.org/2000/svg">
<path d="M20.0695 4.34229C25.2833 1.94409 31.454 4.22656 33.8522 9.44032L53.6928 52.5746L45.161 56.499C44.6592 56.7298 44.0654 56.5102 43.8346 56.0084L20.0695 4.34229Z" fill="#4AB3FF"/>
<path d="M67.8672 46.4355C67.8672 52.1744 63.215 56.8267 57.4761 56.8267L44.1624 56.8267C44.1624 51.0878 48.8147 46.4355 54.5536 46.4355H67.8672Z" fill="#DBFF4A"/>
<path d="M29.0916 4.22119C34.1329 6.96345 35.9966 13.2733 33.2544 18.3146L14.0934 53.5397C11.3511 58.581 5.0413 60.4447 -1.84188e-06 57.7024L29.0916 4.22119Z" fill="#0094FF"/>
<path d="M32.6548 33.4956C38.3936 33.4708 43.0659 38.1029 43.0907 43.8417L10.4722 43.9826C4.73334 44.0074 0.06101 39.3753 0.0362199 33.6365L32.6548 33.4956Z" fill="#0080FF"/>
</svg>
