<svg width="83" height="83" viewBox="0 0 83 83" fill="none" xmlns="http://www.w3.org/2000/svg">
<mask id="mask0_52_380" style="mask-type:alpha" maskUnits="userSpaceOnUse" x="0" y="0" width="83" height="83">
<rect width="83" height="83" fill="#D9D9D9"/>
</mask>
<g mask="url(#mask0_52_380)">
<path d="M13.8333 72.625V55.3333C13.8333 53.4312 14.5106 51.803 15.8651 50.4484C17.2196 49.0939 18.8479 48.4167 20.75 48.4167H62.25C64.1521 48.4167 65.7804 49.0939 67.1349 50.4484C68.4894 51.803 69.1666 53.4312 69.1666 55.3333V72.625H13.8333ZM31.125 44.9583C26.341 44.9583 22.263 43.2724 18.8911 39.9005C15.5193 36.5286 13.8333 32.4507 13.8333 27.6667C13.8333 22.8826 15.5193 18.8047 18.8911 15.4328C22.263 12.0609 26.341 10.375 31.125 10.375H51.875C56.659 10.375 60.737 12.0609 64.1088 15.4328C67.4807 18.8047 69.1666 22.8826 69.1666 27.6667C69.1666 32.4507 67.4807 36.5286 64.1088 39.9005C60.737 43.2724 56.659 44.9583 51.875 44.9583H31.125ZM20.75 65.7083H62.25V55.3333H20.75V65.7083ZM31.125 38.0417H51.875C54.7569 38.0417 57.2066 37.033 59.2239 35.0156C61.2413 32.9983 62.25 30.5486 62.25 27.6667C62.25 24.7847 61.2413 22.3351 59.2239 20.3177C57.2066 18.3003 54.7569 17.2917 51.875 17.2917H31.125C28.243 17.2917 25.7934 18.3003 23.776 20.3177C21.7587 22.3351 20.75 24.7847 20.75 27.6667C20.75 30.5486 21.7587 32.9983 23.776 35.0156C25.7934 37.033 28.243 38.0417 31.125 38.0417ZM31.125 31.125C32.1048 31.125 32.9262 30.7936 33.589 30.1307C34.2519 29.4679 34.5833 28.6465 34.5833 27.6667C34.5833 26.6868 34.2519 25.8655 33.589 25.2026C32.9262 24.5398 32.1048 24.2083 31.125 24.2083C30.1451 24.2083 29.3238 24.5398 28.6609 25.2026C27.9981 25.8655 27.6666 26.6868 27.6666 27.6667C27.6666 28.6465 27.9981 29.4679 28.6609 30.1307C29.3238 30.7936 30.1451 31.125 31.125 31.125ZM51.875 31.125C52.8548 31.125 53.6762 30.7936 54.339 30.1307C55.0019 29.4679 55.3333 28.6465 55.3333 27.6667C55.3333 26.6868 55.0019 25.8655 54.339 25.2026C53.6762 24.5398 52.8548 24.2083 51.875 24.2083C50.8951 24.2083 50.0738 24.5398 49.4109 25.2026C48.7481 25.8655 48.4166 26.6868 48.4166 27.6667C48.4166 28.6465 48.7481 29.4679 49.4109 30.1307C50.0738 30.7936 50.8951 31.125 51.875 31.125Z" fill="white"/>
</g>
</svg>
