<svg width="83" height="83" viewBox="0 0 83 83" fill="none" xmlns="http://www.w3.org/2000/svg">
<mask id="mask0_52_389" style="mask-type:alpha" maskUnits="userSpaceOnUse" x="0" y="0" width="83" height="83">
<rect width="83" height="83" fill="#D9D9D9"/>
</mask>
<g mask="url(#mask0_52_389)">
<path d="M17.2917 72.625C15.3896 72.625 13.7613 71.9477 12.4068 70.5932C11.0523 69.2387 10.375 67.6104 10.375 65.7083V17.2917C10.375 15.3896 11.0523 13.7613 12.4068 12.4068C13.7613 11.0523 15.3896 10.375 17.2917 10.375H65.7083C67.6104 10.375 69.2387 11.0523 70.5932 12.4068C71.9477 13.7613 72.625 15.3896 72.625 17.2917V65.7083C72.625 67.6104 71.9477 69.2387 70.5932 70.5932C69.2387 71.9477 67.6104 72.625 65.7083 72.625H17.2917ZM17.2917 17.2917V65.7083H65.7083V17.2917H58.7917V41.5L50.1458 36.3125L41.5 41.5V17.2917H17.2917Z" fill="white"/>
</g>
</svg>
