<svg width="1440" height="185" viewBox="0 0 1440 185" fill="none" xmlns="http://www.w3.org/2000/svg">
<path d="M0 55.5002H30C60 55.5002 120 55.5002 180 61.6861C240 67.6408 300 80.3595 360 80.1861C420 80.3595 480 67.6408 540 55.5002C600 43.3596 660 30.6408 720 40.0642C780 49.1408 840 80.3595 900 77.0642C960 74.0002 1020 37.0002 1080 27.7502C1140 18.5002 1200 37.0002 1260 52.4361C1320 67.6408 1380 80.3595 1410 86.3142L1440 92.5002V185H1410C1380 185 1320 185 1260 185C1200 185 1140 185 1080 185C1020 185 960 185 900 185C840 185 780 185 720 185C660 185 600 185 540 185C480 185 420 185 360 185C300 185 240 185 180 185C120 185 60 185 30 185H0V55.5002Z" fill="#00C3FF"/>
</svg>
