<svg width="1440" height="320" viewBox="0 0 1440 320" fill="none" xmlns="http://www.w3.org/2000/svg">
<path d="M0 96.0001L40 106.7C80 117 160 139 240 122.7C320 107 400 53.0001 480 74.7001C560 96.0001 640 192 720 229.3C800 267 880 245 960 213.3C1040 181 1120 139 1200 138.7C1280 139 1360 181 1400 202.7L1440 224V320H1400C1360 320 1280 320 1200 320C1120 320 1040 320 960 320C880 320 800 320 720 320C640 320 560 320 480 320C400 320 320 320 240 320C160 320 80 320 40 320H0V96.0001Z" fill="#00C3FF"/>
</svg>
