<svg width="1440" height="191" viewBox="0 0 1440 191" fill="none" xmlns="http://www.w3.org/2000/svg">
<path d="M-237 76.4L-202.062 73.2366C-167.125 69.8344 -97.25 63.8656 -27.375 76.4C42.5 88.9344 112.375 121.166 182.25 140.087C252.125 159.366 322 165.334 391.875 149.637C461.75 133.7 531.625 95.5 601.5 79.5634C671.375 63.8656 741.25 69.8344 811.125 92.3366C881 114.6 950.875 152.8 1020.75 152.8C1090.62 152.8 1160.5 114.6 1230.38 108.213C1300.25 102.066 1370.12 127.134 1405.06 140.087L1440 152.8V0H1405.06C1370.12 0 1300.25 0 1230.38 0C1160.5 0 1090.62 0 1020.75 0C950.875 0 881 0 811.125 0C741.25 0 671.375 0 601.5 0C531.625 0 461.75 0 391.875 0C322 0 252.125 0 182.25 0C112.375 0 42.5 0 -27.375 0C-97.25 0 -167.125 0 -202.062 0H-237V76.4Z" fill="#00C3FF"/>
</svg>
